<?xml version="1.0" encoding="UTF-8"?>
<svg width="613px" height="409px" viewBox="0 0 613 409" version="1.1" xmlns="http://www.w3.org/2000/svg" xmlns:xlink="http://www.w3.org/1999/xlink">
    <!-- Generator: Sketch 3.8.3 (29802) - http://www.bohemiancoding.com/sketch -->
    <title>treats</title>
    <desc>Created with Sketch.</desc>
    <defs></defs>
    <g id="Page-1" stroke="none" stroke-width="1" fill="none" fill-rule="evenodd">
        <g id="treats">
            <g id="Layer_1">
                <rect id="Rectangle-path" fill="#3D7699" x="0.7" y="0.7" width="612" height="408"></rect>
                <g id="Group" transform="translate(106.000000, 70.000000)">
                    <ellipse id="XMLID_209_" fill="#544332" cx="66.5" cy="21.2" rx="57" ry="14.2"></ellipse>
                    <g>
                        <ellipse id="Oval" fill="#319B89" cx="68.1" cy="100" rx="62.4" ry="16.4"></ellipse>
                        <path d="M156.2,24.5 C153,21.1 148.2,19.5 141.7,19.5 C138.7,19.5 135.2,20 131.7,21.6 C126.7,4.3 100.3,0.2 76.6,0.2 L56.1,0.2 C30,0.2 0.2,5.8 0.2,27.7 L0.2,52.6 C0.2,78.7 34.1,100.1 60.3,100.1 L72.5,100.1 C89,100.1 108.7,91.5 120.9,78.6 C121.2,78.4 121.4,78.2 121.6,78.1 C124.4,76.1 128.5,74 133.1,71.9 C145.1,66 160.1,58.7 160.7,45.5 C161.3,36.4 160.7,29.2 156.2,24.5 L156.2,24.5 Z M66.5,35.3 C35,35.3 9.5,29 9.5,21.1 C9.5,13.2 35,6.9 66.5,6.9 C98,6.9 123.5,13.2 123.5,21.1 C123.4,29 97.9,35.3 66.5,35.3 L66.5,35.3 Z M152.6,45.1 C152.2,53.2 140.5,59.1 130.6,64 C131.9,60.4 132.7,56.7 132.7,52.8 L132.7,31.4 C134.9,29.2 137.9,28 141.9,28 C146.1,28 148.8,28.8 150.4,30.3 C152.8,33 152.9,39.3 152.6,45.1 L152.6,45.1 Z" id="XMLID_210_" fill="#FFFFFF"></path>
                    </g>
                </g>
                <g id="Group" transform="translate(385.000000, 232.000000)">
                    <ellipse id="Oval" fill="#319B89" cx="50.8" cy="106.9" rx="50.2" ry="13.2"></ellipse>
                    <g>
                        <path d="M58.1,0.1 L42.6,0.1 C22.9,0.1 0.6,4.3 0.6,20.8 L0.6,70.3 C0.6,90 26.1,106.1 45.8,106.1 L55,106.1 C74.7,106.1 100.2,90 100.2,70.3 L100.2,20.8 C100.1,3.9 77.8,0.1 58.1,0.1 L58.1,0.1 Z" id="XMLID_49_" fill="#FFFFFF"></path>
                        <ellipse id="XMLID_47_" fill="#9BAD2D" cx="50.3" cy="15.8" rx="42.8" ry="10.7"></ellipse>
                    </g>
                </g>
                <g id="Group" transform="translate(385.000000, 38.000000)">
                    <ellipse id="Oval" fill="#319B89" cx="49.9" cy="133.3" rx="49.5" ry="13.1"></ellipse>
                    <path d="M83.6,69.7 L83.6,69.7 C80.8,68.9 79.3,66 80.1,63.4 L97.2,4.1 C98,1.3 100.9,-0.2 103.5,0.6 L103.5,0.6 C106.3,1.4 107.8,4.3 107,6.9 L89.9,66.2 C89.1,69 86.2,70.5 83.6,69.7 L83.6,69.7 Z" id="Shape" fill="#FCEEE0"></path>
                    <path d="M57.6,45.9 L42.3,45.9 C22.9,45.9 0.9,50.1 0.9,66.3 L0.9,98 C0.9,117.4 26,133.3 45.4,133.3 L54.5,133.3 C73.9,133.3 99,117.4 99,98 L99,66.3 C99,49.7 77,45.9 57.6,45.9 L57.6,45.9 Z" id="XMLID_1_" fill="#FFFFFF"></path>
                    <path d="M93.6,55.3 C93.6,79.2 74.2,82.4 50.4,82.4 C26.5,82.4 7.2,79.2 7.2,55.3 C7.2,31.4 26.6,12.1 50.4,12.1 C74.2,12 93.6,31.3 93.6,55.3 L93.6,55.3 Z" id="Shape" fill="#F092B0"></path>
                    <path d="M20.1,76.2 C24.1,72.2 21.3,68.6 17.4,64.7 C13.4,60.7 9.8,58.1 5.9,62 C1.9,66 1.9,72.3 5.9,76.2 C9.8,80.2 16.3,80.2 20.1,76.2 L20.1,76.2 Z" id="Shape" fill="#F092B0"></path>
                    <path d="M79.7,76.2 C75.7,72.2 78.5,68.6 82.4,64.7 C86.4,60.7 90,58.1 93.9,62 C97.9,66 97.9,72.3 93.9,76.2 C90,80.2 83.7,80.2 79.7,76.2 L79.7,76.2 Z" id="Shape" fill="#F092B0"></path>
                    <path d="M39.8,80.2 C39.8,74.7 44.3,73.9 49.9,73.9 C55.5,73.9 60,74.6 60,80.2 C60,85.7 55.5,90.3 49.9,90.3 C44.3,90.3 39.8,85.7 39.8,80.2 L39.8,80.2 Z" id="Shape" fill="#F092B0"></path>
                    <path d="M19.9,75.5 C21,70.1 25.6,70.3 31,71.4 C36.4,72.5 40.7,74.2 39.6,79.7 C38.5,85.1 33.2,88.6 27.7,87.5 C22.3,86.2 18.8,80.9 19.9,75.5 L19.9,75.5 Z" id="Shape" fill="#F092B0"></path>
                    <path d="M80.1,75.5 C79,70.1 74.4,70.3 69,71.4 C63.6,72.5 59.3,74.2 60.4,79.7 C61.5,85.1 66.8,88.6 72.3,87.5 C77.8,86.2 81.2,80.9 80.1,75.5 L80.1,75.5 Z" id="Shape" fill="#F092B0"></path>
                </g>
                <g id="Group" transform="translate(94.000000, 254.000000)">
                    <ellipse id="Oval" fill="#319B89" cx="77.4" cy="79.6" rx="77.4" ry="18.8"></ellipse>
                    <path d="M154.8,38.5 C154.8,46.1 154.4,59.2 146,68.3 C131.7,83.7 106.3,84.9 78.5,84.9 C51.5,84.9 23,84.4 8.6,69.5 C-0.5,60.1 0.4,46.4 0.4,38.5 C0.4,17.8 34.4,1.1 78.4,1.1 C122.4,1.1 154.8,17.9 154.8,38.5 L154.8,38.5 Z" id="Shape" fill="#FFD6A8"></path>
                    <path d="M77.5,0.4 C42.6,0.4 10,11 10,27.3 C10,43.6 42.7,59.6 77.5,59.6 C112.4,59.6 145.9,43.7 145.9,27.3 C145.9,10.9 112.3,0.4 77.5,0.4 L77.5,0.4 Z M78.6,36.9 C68.7,36.9 60.7,33.8 60.7,30.1 C60.7,26.4 68.7,23.3 78.6,23.3 C88.5,23.3 96.4,26.4 96.4,30.1 C96.3,33.8 88.4,36.9 78.6,36.9 L78.6,36.9 Z" id="Shape" fill="#544332"></path>
                    <path d="M24.2,40 C28.4,35.8 25.5,31.9 21.3,27.8 C17.1,23.7 13.2,20.9 9.1,24.9 C4.9,29 4.9,35.8 9.1,39.9 C13.3,44.1 20,44.1 24.2,40 L24.2,40 Z" id="Shape" fill="#544332"></path>
                    <path d="M131.1,41 C126.9,36.8 129.8,32.9 134,28.8 C138.2,24.7 142.1,21.9 146.2,25.9 C150.4,30.1 150.4,36.8 146.2,40.9 C141.9,45 135.2,45 131.1,41 L131.1,41 Z" id="Shape" fill="#544332"></path>
                    <path d="M66.4,58.5 C66.4,52.6 71.2,51.9 77,51.9 C82.9,51.9 87.6,52.7 87.6,58.5 C87.6,64.4 82.8,69.1 77,69.1 C74.2,69.1 71.8,68.1 69.9,66.3 C67.8,64.4 66.4,61.7 66.4,58.5 L66.4,58.5 Z" id="Shape" fill="#544332"></path>
                    <path d="M49.5,53.3 C50.7,47.6 55.5,47.8 61.3,49 C67,50.2 71.5,52 70.3,57.8 C69.1,63.5 63.5,67.2 57.7,66 C55,65.4 52.8,63.9 51.3,61.8 C49.5,59.4 48.8,56.4 49.5,53.3 L49.5,53.3 Z" id="Shape" fill="#544332"></path>
                    <path d="M103.8,53.3 C102.6,47.6 97.8,47.8 92,49 C86.3,50.2 81.8,52 83,57.8 C84.2,63.5 89.8,67.2 95.6,66 C98.3,65.4 100.5,63.9 102,61.8 C103.8,59.4 104.5,56.4 103.8,53.3 L103.8,53.3 Z" id="Shape" fill="#544332"></path>
                    <path d="M33.4,49 C34.6,43.3 39.4,43.5 45.1,44.6 C50.8,45.8 55.3,47.6 54.2,53.3 C53,59 47.4,62.8 41.7,61.6 C35.9,60.4 32.2,54.8 33.4,49 L33.4,49 Z" id="Shape" fill="#544332"></path>
                    <path d="M121.5,49 C120.3,43.3 115.5,43.5 109.8,44.6 C104.1,45.8 99.6,47.6 100.7,53.3 C101.9,59 107.5,62.8 113.2,61.6 C118.9,60.4 122.8,54.8 121.5,49 L121.5,49 Z" id="Shape" fill="#544332"></path>
                    <path d="M113.2,22.4 L101,15.9 C100,15.4 99.7,14.2 100.2,13.1 L100.2,13.1 C100.7,12.1 101.9,11.8 103,12.3 L115.2,18.8 C116.2,19.3 116.5,20.5 116,21.6 L116,21.6 C115.4,22.6 114.2,23 113.2,22.4 L113.2,22.4 Z" id="Shape" fill="#F092B0"></path>
                    <path d="M53.6,20 L41.4,13.5 C40.4,13 40.1,11.8 40.6,10.7 L40.6,10.7 C41.1,9.7 42.3,9.4 43.4,9.9 L55.6,16.4 C56.6,16.9 56.9,18.1 56.4,19.2 L56.4,19.2 C55.8,20.2 54.6,20.5 53.6,20 L53.6,20 Z" id="Shape" fill="#F092B0"></path>
                    <path d="M87.1,53.4 L74.9,46.9 C73.9,46.4 73.6,45.2 74.1,44.1 L74.1,44.1 C74.6,43.1 75.8,42.8 76.9,43.3 L89.1,49.8 C90.1,50.3 90.4,51.5 89.9,52.6 L89.9,52.6 C89.3,53.5 88,53.9 87.1,53.4 L87.1,53.4 Z" id="Shape" fill="#F092B0"></path>
                    <circle id="Oval" fill="#FCEEE0" cx="78" cy="12.1" r="2.5"></circle>
                    <circle id="Oval" fill="#FCEEE0" cx="51" cy="31.3" r="2.5"></circle>
                    <circle id="Oval" fill="#FCEEE0" cx="126.9" cy="25.3" r="2.5"></circle>
                    <path d="M136.9,39.5 C134.5,34.2 129.8,35.4 124.5,37.9 C119.2,40.3 115.1,43 117.6,48.4 C120,53.8 126.4,56 131.7,53.7 C137,51.2 139.4,44.9 136.9,39.5 L136.9,39.5 Z" id="Shape" fill="#544332"></path>
                    <path d="M18.3,39.5 C20.7,34.2 25.4,35.4 30.7,37.9 C36,40.3 40.1,43 37.6,48.4 C35.2,53.7 28.8,56 23.5,53.7 C18.2,51.2 15.9,44.9 18.3,39.5 L18.3,39.5 Z" id="Shape" fill="#544332"></path>
                    <path d="M121.3,41.7 L109.1,35.2 C108.1,34.7 107.8,33.5 108.3,32.4 L108.3,32.4 C108.8,31.4 110,31.1 111.1,31.6 L123.3,38.1 C124.3,38.6 124.6,39.8 124.1,40.9 L124.1,40.9 C123.6,41.9 122.3,42.2 121.3,41.7 L121.3,41.7 Z" id="Shape" fill="#F092B0"></path>
                    <circle id="Oval" fill="#FCEEE0" cx="101" cy="43" r="2.5"></circle>
                    <circle id="Oval" fill="#FCEEE0" cx="58.1" cy="47.5" r="2.5"></circle>
                    <path d="M33.4,39 L21.2,32.5 C20.2,32 19.9,30.8 20.4,29.7 L20.4,29.7 C20.9,28.7 22.1,28.4 23.2,28.9 L35.4,35.4 C36.4,35.9 36.7,37.1 36.2,38.2 L36.2,38.2 C35.6,39.1 34.4,39.5 33.4,39 L33.4,39 Z" id="Shape" fill="#F092B0"></path>
                </g>
            </g>
        </g>
    </g>
</svg>